<?xml version="1.0" encoding="utf-8"?>
<svg viewBox="0 0 20 20" xmlns="http://www.w3.org/2000/svg" fill="#333">
  <path d="M 10.012 4.988 C 7.266 4.988 5.038 7.216 5.038 9.962 C 5.038 12.71 7.266 14.937 10.012 14.937 C 12.76 14.937 14.987 12.71 14.987 9.962 C 14.987 7.216 12.76 4.988 10.012 4.988 Z M 5.605 10.238 L 6.706 10.238 C 6.731 10.932 6.85 11.585 7.045 12.172 L 6.188 12.172 C 5.847 11.583 5.647 10.92 5.605 10.238 Z M 10.288 7.2 L 10.288 5.564 C 11.048 5.685 11.715 6.297 12.168 7.2 L 10.288 7.2 Z M 12.403 7.752 C 12.611 8.328 12.74 8.984 12.767 9.687 L 10.288 9.687 L 10.288 7.752 L 12.403 7.752 Z M 9.737 5.564 L 9.737 7.2 L 7.858 7.2 C 8.31 6.297 8.978 5.685 9.737 5.564 Z M 9.737 7.752 L 9.737 9.687 L 7.258 9.687 C 7.286 8.984 7.413 8.328 7.622 7.752 L 9.737 7.752 Z M 6.707 9.687 L 5.605 9.687 C 5.647 9.006 5.847 8.342 6.188 7.752 L 7.045 7.752 C 6.85 8.34 6.731 8.995 6.707 9.687 Z M 7.258 10.238 L 9.737 10.238 L 9.737 12.172 L 7.622 12.172 C 7.413 11.598 7.286 10.941 7.258 10.238 Z M 9.737 12.726 L 9.737 14.361 C 8.978 14.241 8.31 13.627 7.858 12.726 L 9.737 12.726 Z M 10.288 14.361 L 10.288 12.726 L 12.169 12.726 C 11.715 13.627 11.048 14.241 10.288 14.361 Z M 10.288 12.172 L 10.288 10.238 L 12.767 10.238 C 12.74 10.941 12.611 11.598 12.404 12.172 L 10.288 12.172 Z M 13.32 10.238 L 14.419 10.238 C 14.379 10.921 14.18 11.583 13.837 12.172 L 12.979 12.172 C 13.175 11.585 13.294 10.932 13.32 10.238 Z M 13.32 9.687 C 13.294 8.995 13.175 8.34 12.979 7.752 L 13.837 7.752 C 14.18 8.342 14.379 9.006 14.419 9.687 L 13.32 9.687 Z M 13.461 7.2 L 12.77 7.2 C 12.571 6.756 12.326 6.366 12.045 6.039 C 12.592 6.324 13.075 6.718 13.461 7.2 Z M 7.98 6.039 C 7.699 6.366 7.454 6.756 7.256 7.2 L 6.563 7.2 C 6.95 6.718 7.431 6.324 7.98 6.039 Z M 6.563 12.726 L 7.256 12.726 C 7.454 13.169 7.699 13.559 7.98 13.885 C 7.431 13.602 6.95 13.207 6.563 12.726 Z M 12.045 13.885 C 12.326 13.559 12.571 13.169 12.77 12.726 L 13.461 12.726 C 13.074 13.207 12.592 13.602 12.045 13.885 Z" style="stroke-width: 1;"/>
</svg>